# xmcd
#
# Track frame offsets:
#	150
#	15083
#	29178
#	43520
#	58484
#	71101
#	86099
#	98272
#	115205
#	132123
#	143807
#	163578
#
# Disc length: 2408 seconds
# Revision: 0
# Processed by: cddbd v1.5.2PL0 Copyright (c) Steve Scherf et al.
# Submitted via: dBpowerAMP V12.0
#
DISCID=a009660c
DTITLE=Allan Sinclair - Thinking Of You
DYEAR=2015
DGENRE=Country
TTITLE0=Want To Grow Old With You
TTITLE1=Yesterday's Mail
TTITLE2=Just Can't Wait
TTITLE3=I WIsh I Could Fly Away
TTITLE4=Truck Drivers Song
TTITLE5=Angel Called Rose
TTITLE6=What You've Done To My Heart
TTITLE7=My Grandad
TTITLE8=Please Come In
TTITLE9=Oh Clancy
TTITLE10=We Ain't Talked In A While
TTITLE11=Thinking Of You
EXTD=
EXTT0=
EXTT1=
EXTT2=
EXTT3=
EXTT4=
EXTT5=
EXTT6=
EXTT7=
EXTT8=
EXTT9=
EXTT10=
EXTT11=
PLAYORDER=
